<?xml version="1.0" encoding="UTF-8"?>
<svg id="Layer_1" xmlns="http://www.w3.org/2000/svg" viewBox="0 0 316.95 143.44">
<defs><style>.cls-1{fill:#231f20;}
</style>
</defs>
<polygon class="cls-1" points="78.62 118.03 49.85 72.58 75.93 36.7 47.24 36.7 27.24 68.21 26.95 68.21 26.95 36.7 0 36.7 0 118.81 26.95 118.81 26.95 97.08 32.6 90.18 48.4 118.81 48.4 118.81 53.29 127.91 53.29 127.91 55.35 131.77 51.08 134.29 77.53 143.44 79.54 131.82 79.54 131.82 79.54 131.82 82.3 115.86 78.62 118.03"/>
<path class="cls-1" d="M309.21,24.96h7.74L295.74,0l-21.21,24.96h7.74V95.93c0,3.99-.72,6.65-2.17,7.99-1.45,1.34-3.43,2.01-5.94,2.01s-4.49-.67-5.94-2.01c-1.45-1.34-2.17-4.01-2.17-7.99V36.7h-26.95v53.82c0,5.75,.77,10.54,2.32,14.38,1.54,3.83,3.79,6.9,6.74,9.2,2.95,2.3,6.62,3.87,11.01,4.71,4.39,.84,9.39,1.26,15,1.26s10.72-.42,15.07-1.26c4.35-.84,7.99-2.42,10.94-4.71,2.95-2.3,5.19-5.37,6.74-9.2,1.54-3.83,2.32-8.62,2.32-14.38V36.7h0v-11.75Z"/>
<path class="cls-1" d="M139.39,75.46c-3.29-1.92-6.81-3.47-10.58-4.66-3.77-1.19-7.29-2.36-10.58-3.51-3.29-1.15-6.01-2.51-8.19-4.08-2.17-1.57-3.26-3.7-3.26-6.38,0-1.84,.67-3.51,2.03-5,1.35-1.5,3.48-2.24,6.38-2.24,2.61,0,4.54,.86,5.8,2.59,1.25,1.73,1.88,3.81,1.88,6.27v1.96h25.21c0-8.82-2.63-15.24-7.9-19.26-5.27-4.02-13.79-6.04-25.57-6.04s-19.9,2.19-25.5,6.56c-5.6,4.37-8.4,10.73-8.4,19.09,0,4.83,1.04,8.74,3.12,11.73,2.08,2.99,4.68,5.4,7.82,7.24,3.14,1.84,6.54,3.33,10.22,4.49,3.67,1.15,7.08,2.28,10.21,3.39,3.14,1.11,5.75,2.45,7.83,4.03,2.08,1.57,3.12,3.7,3.12,6.38,0,2.22-.75,4.1-2.25,5.63-1.5,1.54-3.65,2.3-6.45,2.3-2.61,0-4.73-.71-6.38-2.13-1.64-1.42-2.46-3.89-2.46-7.42v-1.96h-26.08v2.88c0,4.29,.77,7.9,2.32,10.81,1.54,2.92,3.79,5.27,6.74,7.07,2.95,1.8,6.57,3.07,10.87,3.79,4.3,.73,9.25,1.09,14.85,1.09,11.88,0,20.96-1.97,27.24-5.92,6.28-3.95,9.42-10.29,9.42-19.03,0-4.98-1.09-9.03-3.26-12.13-2.17-3.11-4.9-5.62-8.19-7.53Z"/>
<path class="cls-1" d="M203.07,95.53c-.24,2.57-.65,4.62-1.23,6.15-.58,1.53-1.4,2.63-2.46,3.28-1.06,.65-2.42,.98-4.06,.98-2.03,0-3.65-.42-4.85-1.27-1.21-.84-2.13-2.34-2.75-4.48-.63-2.15-1.04-5.04-1.23-8.68-.19-3.64-.29-8.22-.29-13.74s.1-10.1,.29-13.74c.19-3.64,.6-6.54,1.23-8.68,.63-2.15,1.54-3.64,2.75-4.48,1.21-.84,2.83-1.27,4.85-1.27,2.61,0,4.49,.84,5.65,2.53,1.16,1.69,1.74,4.87,1.74,9.55v4.6h26.08v-5.17c0-3.99-.6-7.57-1.81-10.75-1.21-3.18-3.14-5.9-5.8-8.17-2.66-2.26-6.11-4.01-10.36-5.23-4.25-1.23-9.42-1.84-15.5-1.84-6.96,0-12.8,.75-17.53,2.24-4.73,1.5-8.55,3.93-11.45,7.3-2.9,3.37-4.95,7.78-6.16,13.22-1.21,5.44-1.81,12.08-1.81,19.89s.51,14.2,1.52,19.61c1.01,5.4,2.87,9.81,5.58,13.22,2.7,3.41,6.47,5.85,11.3,7.3,4.83,1.46,11.01,2.18,18.55,2.18,4.35,0,8.57-.36,12.68-1.09,4.1-.73,7.75-2.15,10.94-4.25,3.19-2.11,5.75-5,7.68-8.68,1.93-3.68,2.9-8.39,2.9-14.14v-6.09h-26.08c0,3.91-.12,7.15-.36,9.72Z"/>
</svg>
