<?xml version="1.0" encoding="iso-8859-1"?>
<!-- Uploaded to: SVG Repo, www.svgrepo.com, Generator: SVG Repo Mixer Tools -->
<svg fill="#000000" height="800px" width="800px" version="1.1" id="Layer_1" xmlns="http://www.w3.org/2000/svg" xmlns:xlink="http://www.w3.org/1999/xlink" 
	 viewBox="0 0 512 512" xml:space="preserve">
<g>
	<g>
		<path d="M174.636,323.685v165.473c0,12.616,10.228,22.842,22.843,22.842c12.616,0,22.843-10.227,22.843-22.842V333.384
			C204.724,334.628,188.899,331.254,174.636,323.685z"/>
	</g>
</g>
<g>
	<g>
		<path d="M275.694,302.694c-4.802,6.541-10.734,12.151-16.884,16.595c-8.604,6.217-18.31,10.48-28.624,12.659v157.209
			c0,12.616,10.227,22.842,22.842,22.842c12.616,0,22.666-10.227,22.666-22.842C275.694,293.218,276.218,305.747,275.694,302.694z"
			/>
	</g>
</g>
<g>
	<g>
		<path d="M414.508,177.811c-0.847-7.895-6.411-14.137-13.584-16.237c-5.858,5.869-13.73,8.143-21.207,6.952l-45.323,32.753
			c0.161,1.418,0.258,2.833,0.324,4.246l62.896-6.755C408.067,197.647,415.631,188.264,414.508,177.811z"/>
	</g>
</g>
<g>
	<g>
		<path d="M410.511,112.173l-7.866-10.885c-2.001-2.769-5.13-4.24-8.305-4.24c-2.078-0.001-4.174,0.63-5.986,1.94l-2.976,2.151
			c-2.306-3.192-6.765-3.915-9.965-1.604c-3.194,2.309-3.913,6.77-1.603,9.965l-4.339,3.135c-2.307-3.193-6.769-3.914-9.965-1.604
			c-3.195,2.309-3.913,6.77-1.604,9.965l-62.681,45.299c-8.162-5.89-17.535-9.026-26.584-9.026
			c-13.14-0.001-24.095,6.604-30.209,16.837c-4.06,6.794-11.354,10.822-19.069,10.822c-4.405,0-7.367-1.539-16.188-1.539
			c-7.675,0-15.289,1.415-22.453,4.321l-7.572,14.029l34.414,9.371c20.442,5.566,32.503,26.651,26.936,47.094
			c-5.564,20.436-26.647,32.502-47.092,26.936l-36.248-9.87c1.865,3.853,4.084,7.613,6.692,11.22
			c13.945,19.296,35.273,29.753,56.154,29.753c12.214,0,24.274-3.576,34.62-11.053c13.735-9.924,21.884-24.882,24.028-41.155
			c1.218-9.247,8.089-16.758,17.192-18.788c4.512-1.005,8.813-2.883,12.691-5.685c13.649-9.864,18.073-28.294,12.548-45.787
			l62.679-45.299c2.309,3.194,6.77,3.913,9.965,1.604c3.194-2.309,3.913-6.77,1.604-9.965l4.337-3.135
			c2.31,3.195,6.771,3.913,9.965,1.604c3.195-2.309,3.913-6.77,1.604-9.965l2.976-2.151
			C412.792,123.153,413.822,116.756,410.511,112.173z"/>
	</g>
</g>
<g>
	<g>
		<path d="M294.343,46.072c-2.412-7.843-10.728-12.244-18.57-9.832c-3.276,1.008-6.576,1.887-9.886,2.695L256.567,4.13
			c-0.776-2.899-3.71-4.662-6.634-3.985L232.617,4.15c-4.835,1.118-9.861,1.118-14.697,0l-17.315-4.005
			c-2.924-0.677-5.858,1.086-6.634,3.985l-9.319,34.806c-3.311-0.808-6.609-1.687-9.887-2.695
			c-7.843-2.413-16.156,1.99-18.571,9.832c-2.413,7.843,1.989,16.158,9.833,18.571c6.561,2.019,13.19,3.666,19.857,5.002
			c-0.051,0.822-0.086,1.648-0.086,2.481c0,21.789,17.663,39.452,39.451,39.452c21.788,0,39.452-17.663,39.452-39.452
			c0-0.832-0.035-1.654-0.086-2.474c6.68-1.337,13.321-2.988,19.894-5.01C292.354,62.229,296.755,53.915,294.343,46.072z"/>
	</g>
</g>
<g>
	<g>
		<path d="M276.446,124.152h-97.771c-2.616,0-5.194,0.234-7.725,0.642c-14.705,2.37-27.65,11.396-34.869,24.768l-36.406,67.445
			c-5.83,10.8-0.049,24.198,11.748,27.409l81.054,22.071c10.136,2.761,20.605-3.217,23.37-13.366
			c2.761-10.143-3.222-20.606-13.366-23.367l-57.912-15.769c26.504-49.1,24.995-46.412,25.637-47.3
			c1.4-1.935,3.887-2.747,6.16-2.011c2.272,0.736,3.811,2.853,3.811,5.24c9.936-4.343,29.122-4.22,38.27-2.477
			c2.066,0.392,4.047-0.595,5.042-2.26c9.327-15.61,26.03-25.314,45.147-25.313c8.585,0,17.332,1.999,25.496,5.744l12.957-9.364
			C299.037,128.753,288.26,124.152,276.446,124.152z"/>
	</g>
</g>
</svg>