<?xml version="1.0" encoding="iso-8859-1"?>

<!DOCTYPE svg PUBLIC "-//W3C//DTD SVG 1.1//EN" "http://www.w3.org/Graphics/SVG/1.1/DTD/svg11.dtd">
<!-- Uploaded to: SVG Repo, www.svgrepo.com, Generator: SVG Repo Mixer Tools -->
<svg fill="#000000" version="1.1" xmlns="http://www.w3.org/2000/svg" xmlns:xlink="http://www.w3.org/1999/xlink" 
	 width="800px" height="800px" viewBox="0 0 29.711 29.711"
	 xml:space="preserve">
<g id="guitar">
	<path d="M28.71,4.273l0.668-0.668c0.443-0.443,0.443-1.164,0-1.607l-1.664-1.664C27.501,0.121,27.212,0,26.91,0
		s-0.591,0.12-0.804,0.333l-0.669,0.668l-0.653-0.653c-0.271-0.271-0.711-0.271-0.982,0c-0.271,0.271-0.271,0.71,0,0.981
		l0.654,0.653L24.129,2.31l-0.653-0.654c-0.271-0.271-0.711-0.271-0.981,0c-0.271,0.271-0.271,0.711,0,0.982l0.653,0.653
		L22.82,3.619l-0.653-0.653c-0.271-0.271-0.71-0.271-0.981,0c-0.271,0.271-0.271,0.71,0,0.981L21.839,4.6l-4.939,4.94
		c-2.369-1.258-5.109-1.105-6.812,0.597c-0.315,0.315-0.577,0.667-0.788,1.046c-0.458,0.828-1.325,1.35-2.273,1.367
		c-1.878,0.035-3.653,0.703-4.986,2.035c-3.068,3.068-2.625,8.484,0.988,12.097s9.03,4.056,12.098,0.988
		c1.332-1.332,2.001-3.107,2.035-4.986c0.018-0.946,0.541-1.816,1.367-2.273c0.379-0.21,0.73-0.472,1.047-0.787
		c1.701-1.702,1.854-4.444,0.596-6.812l4.94-4.939l0.653,0.654c0.137,0.135,0.313,0.203,0.491,0.203s0.354-0.068,0.491-0.203
		c0.271-0.271,0.271-0.711,0-0.982l-0.654-0.653l0.326-0.327l0.654,0.654c0.137,0.135,0.314,0.203,0.491,0.203
		c0.178,0,0.354-0.068,0.491-0.203c0.271-0.271,0.271-0.711,0-0.982l-0.654-0.653l0.327-0.328l0.655,0.655
		c0.135,0.135,0.313,0.203,0.49,0.203s0.354-0.068,0.49-0.203c0.271-0.271,0.271-0.711,0-0.982L28.71,4.273z M15.787,18.504
		c-1.265,1.265-3.315,1.265-4.58,0s-1.265-3.315,0-4.58s3.316-1.265,4.58,0C17.052,15.189,17.053,17.239,15.787,18.504z"/>
</g>
<g id="Layer_1">
</g>
</svg>