<?xml version="1.0" encoding="utf-8"?>

<!DOCTYPE svg PUBLIC "-//W3C//DTD SVG 1.1//EN" "http://www.w3.org/Graphics/SVG/1.1/DTD/svg11.dtd">
<!-- Uploaded to: SVG Repo, www.svgrepo.com, Generator: SVG Repo Mixer Tools -->
<svg version="1.1" id="_x32_" xmlns="http://www.w3.org/2000/svg" xmlns:xlink="http://www.w3.org/1999/xlink" 
	 viewBox="0 0 512 512"  xml:space="preserve">
<style type="text/css">
	.st0{fill:#000000;}
</style>
<g>
	<path class="st0" d="M400.898,328.419c-9.074,0-16.42,7.346-16.42,16.419c0,9.081,7.346,16.426,16.42,16.426
		c9.08,0,16.434-7.345,16.434-16.426C417.331,335.764,409.978,328.419,400.898,328.419z"/>
	<path class="st0" d="M111.089,328.419c-9.074,0-16.427,7.346-16.427,16.419c0,9.081,7.353,16.426,16.427,16.426
		c9.081,0,16.426-7.345,16.426-16.426C127.515,335.764,120.17,328.419,111.089,328.419z"/>
	<path class="st0" d="M112.941,103.926c0.015-8.191,6.633-14.809,14.824-14.823h256.47c8.191,0.014,14.809,6.632,14.823,14.823
		v65.486h30.118v-65.486c-0.007-24.824-20.117-44.934-44.941-44.941h-256.47c-24.824,0.007-44.934,20.117-44.942,44.941v65.486
		h30.118V103.926z"/>
	<rect x="159.993" y="154.353" class="st0" width="37.647" height="15.059"/>
	<rect x="211.449" y="154.353" class="st0" width="37.647" height="15.059"/>
	<rect x="262.904" y="154.353" class="st0" width="37.647" height="15.059"/>
	<rect x="314.36" y="154.353" class="st0" width="37.647" height="15.059"/>
	<path class="st0" d="M400.898,281.022c-17.648,0.008-33.552,7.132-45.125,18.691c-11.558,11.574-18.684,27.479-18.691,45.125
		c0.008,17.648,7.133,33.559,18.691,45.132c11.573,11.559,27.478,18.684,45.125,18.692c17.647-0.008,33.558-7.133,45.132-18.692
		c11.559-11.574,18.684-27.485,18.691-45.132c-0.007-17.64-7.132-33.552-18.691-45.125
		C434.448,288.154,418.544,281.029,400.898,281.022z M400.898,392.066c-26.074,0-47.221-21.147-47.221-47.228
		c0-26.066,21.147-47.213,47.221-47.213c26.081,0,47.221,21.147,47.221,47.213C448.118,370.919,426.979,392.066,400.898,392.066z"/>
	<path class="st0" d="M111.089,281.022c-17.647,0.008-33.552,7.132-45.125,18.691c-11.559,11.574-18.684,27.479-18.691,45.125
		c0.007,17.648,7.132,33.559,18.691,45.132c11.574,11.559,27.478,18.684,45.125,18.692c17.647-0.008,33.559-7.133,45.132-18.692
		c11.558-11.574,18.684-27.485,18.691-45.132c-0.008-17.64-7.133-33.552-18.691-45.125
		C144.64,288.154,128.736,281.029,111.089,281.022z M111.089,392.066c-26.074,0-47.22-21.147-47.22-47.228
		c0-26.066,21.147-47.213,47.22-47.213c26.08,0,47.22,21.147,47.22,47.213C158.309,370.919,137.169,392.066,111.089,392.066z"/>
	<path class="st0" d="M0,181.956v271.059h512V181.956H0z M171.692,209.066c8.316,0,15.059,6.742,15.059,15.059
		c0,8.316-6.742,15.059-15.059,15.059c-8.316,0-15.059-6.743-15.059-15.059C156.633,215.809,163.376,209.066,171.692,209.066z
		 M113.964,209.066c8.316,0,15.059,6.742,15.059,15.059c0,8.316-6.742,15.059-15.059,15.059c-8.316,0-15.059-6.743-15.059-15.059
		C98.905,215.809,105.648,209.066,113.964,209.066z M56.236,209.066c8.316,0,15.059,6.742,15.059,15.059
		c0,8.316-6.742,15.059-15.059,15.059c-8.316,0-15.059-6.743-15.059-15.059C41.177,215.809,47.92,209.066,56.236,209.066z
		 M111.089,423.721c-43.566-0.008-78.868-35.309-78.875-78.883c0.007-43.559,35.308-78.868,78.875-78.875
		c43.566,0.007,78.874,35.316,78.882,78.875C189.963,388.411,154.655,423.713,111.089,423.721z M298.662,376.213h-85.331v-67.765
		h85.331V376.213z M298.662,240.434h-85.331v-30.118h85.331V240.434z M400.898,423.721c-43.566-0.008-78.868-35.309-78.875-78.883
		c0.008-43.559,35.309-78.868,78.875-78.875c43.566,0.007,78.875,35.316,78.882,78.875
		C479.773,388.411,444.464,423.713,400.898,423.721z"/>
</g>
</svg>