<?xml version="1.0" encoding="utf-8"?>
<!-- Uploaded to: SVG Repo, www.svgrepo.com, Generator: SVG Repo Mixer Tools -->
<svg fill="#000000" width="800px" height="800px" viewBox="0 0 32 32" version="1.1" xmlns="http://www.w3.org/2000/svg">
<title>super-mushroom</title>
<path d="M29.82 13.637h0c-1.787-13.359-24.88-17.079-27.771 0-0.645 3.809 3.516 5.375 8.619 5.898-1.441 6.212-3.020 10.446 4.949 10.446 8.532 0 6.708-4.596 5.035-10.573 5.173-0.717 9.597-2.566 9.168-5.771zM17.593 3.41c2.127-0.403 4.151 2.496 1.277 3.041-2.126 0.403-4.151-2.496-1.277-3.041zM13.017 3.645c1.362 0.881-0.037 2.461-1.044 1.809-1.362-0.881 0.037-2.461 1.044-1.809zM12.055 6.587c1.36-0.88 3.248 1.252 1.41 2.442-1.36 0.88-3.248-1.252-1.41-2.442zM5.777 15.013c-1.535-0.993 0.041-2.774 1.177-2.039 1.535 0.993-0.041 2.774-1.177 2.039zM8.106 10.785c-2.226 0.383-2.563-3.852 0.445-4.37 2.226-0.383 2.563 3.852-0.445 4.37zM11.795 13.786c1.852 1.198-0.050 3.346-1.42 2.459-1.852-1.198 0.050-3.346 1.42-2.459zM19.396 15.317c-2.804 1.814-6.694-2.58-2.905-5.032 2.804-1.814 6.694 2.58 2.905 5.032zM23.27 9.162c-1.294-0.394-1.376-2.655 0.373-2.123 1.294 0.394 1.376 2.655-0.373 2.123zM25.32 15.33c-2.64-1.708 0.071-4.77 2.024-3.506 2.64 1.708-0.071 4.77-2.024 3.506z"></path>
</svg>