<?xml version="1.0" encoding="utf-8"?>

<!DOCTYPE svg PUBLIC "-//W3C//DTD SVG 1.1//EN" "http://www.w3.org/Graphics/SVG/1.1/DTD/svg11.dtd">
<!-- Uploaded to: SVG Repo, www.svgrepo.com, Generator: SVG Repo Mixer Tools -->
<svg height="800px" width="800px" version="1.1" id="_x32_" xmlns="http://www.w3.org/2000/svg" xmlns:xlink="http://www.w3.org/1999/xlink" 
	 viewBox="0 0 512 512"  xml:space="preserve">
<style type="text/css">
	.st0{fill:#000000;}
</style>
<g>
	<path class="st0" d="M476.82,35.724c-46.899-46.898-123.219-46.898-170.118,0l-58.598,58.599
		c-8.411,8.419-8.411,22.112,0.008,30.531l15.316,15.316c16.46,16.46,43.248,16.46,59.708,0l44.006-44.006
		c13.575-13.574,35.662-13.574,49.246,0c13.567,13.575,13.575,35.662,0,49.237c-9.243,9.252-22.827,12.507-35.688,8.427
		l-6.022-1.396c-9.008-2.094-18.411,1.313-23.962,8.688c-5.644,7.469-6.174,18.967-1.413,28.462l26.914,62.821
		c1.404,3.271,3.398,6.207,5.905,8.721c3.961,3.962,8.948,6.603,14.433,7.663c9.092,1.749,18.436-1.119,24.98-7.654l55.284-55.293
		C523.727,158.943,523.727,82.624,476.82,35.724z"/>
	<path class="st0" d="M361.666,258.628l-2.102-4.92L224.805,388.467c1.018,6.384,1.539,12.86,1.531,19.311
		c0,9.084-0.984,18.092-2.952,26.89l155.844-155.853c-2.985-1.8-5.752-3.97-8.276-6.493
		C366.957,268.318,363.828,263.717,361.666,258.628z"/>
	<path class="st0" d="M129.166,307.285l-28.547,28.538c1.034-0.051,2.052-0.076,3.062-0.084
		c19.236,0.051,37.302,7.536,50.911,21.095c13.584,13.625,21.078,31.708,21.094,50.919c-0.016,19.26-7.51,37.344-21.094,50.927
		c-13.592,13.593-31.675,21.086-50.944,21.112c-19.211-0.025-37.294-7.511-50.919-21.086
		c-13.559-13.609-21.044-31.692-21.095-50.928c0.026-17.873,6.536-34.812,18.42-48.051l-0.101-0.1L255.337,154.25
		c-1.052-0.908-2.094-1.876-3.104-2.894l-15.316-15.308c-1.371-1.38-2.624-2.843-3.76-4.391L30.364,334.452
		c-3.533,3.533-6.822,7.377-9.959,11.565c-0.168,0.252-0.353,0.505-0.546,0.757c-0.076,0.118-0.176,0.235-0.354,0.496
		c-0.563,0.782-1.093,1.556-1.631,2.347l-0.37,0.555c-0.244,0.337-0.462,0.673-0.681,1.018l-0.614,0.934
		c-0.286,0.404-0.546,0.807-0.832,1.262l-0.278,0.504C5.206,370.173-0.017,388.811,0,407.778
		c-0.042,27.663,10.732,53.686,30.346,73.3c19.606,19.606,45.646,30.389,73.334,30.372c27.688,0.025,53.72-10.774,73.3-30.388
		c19.606-19.564,30.38-45.587,30.363-73.284c0.017-27.68-10.758-53.728-30.363-73.326
		C163.776,321.247,147.283,311.886,129.166,307.285z"/>
</g>
</svg>