<?xml version="1.0" encoding="utf-8"?>

<!DOCTYPE svg PUBLIC "-//W3C//DTD SVG 1.1//EN" "http://www.w3.org/Graphics/SVG/1.1/DTD/svg11.dtd">
<!-- Uploaded to: SVG Repo, www.svgrepo.com, Generator: SVG Repo Mixer Tools -->
<svg version="1.1" id="_x32_" xmlns="http://www.w3.org/2000/svg" xmlns:xlink="http://www.w3.org/1999/xlink" 
	 viewBox="0 0 512 512"  xml:space="preserve">
<style type="text/css">
	.st0{fill:#000000;}
</style>
<g>
	<path class="st0" d="M212.448,159.975c8.414,12.347,20.573,20.93,34.769,25.748c14.235,4.894,30.492,6.574,49.356,6.594
		c9.442,0,16.204,0,21.008,0c0,0,0.362,0,0.845,0c0.68,0,1.689,0,2.862,0c10.407-0.02,17.686,0.926,22.069,2.249
		c3.322,0.994,4.894,2.047,5.788,2.868c0.675,0.636,1.115,1.226,1.621,2.288c0.743,1.564,1.448,4.373,1.786,8.524
		c0.352,4.132,0.376,9.452,0.372,15.708c0.111,14.877-0.348,32.08,5.86,48.019c3.133,7.926,8.442,15.688,16.542,21.056
		c8.081,5.407,18.285,8.052,29.991,8.032c8.428,0,14.828,0.02,19.125,0.328c2.244,0.136,3.625,0.377,4.571,0.58
		c0.232,1.564,0.502,4.538,0.444,8.843c0,10.929,0,19.414,0,19.414h25.699c0,0,0-8.486,0-19.414
		c-0.034-5.966-0.097-10.919-1.448-16.316c-0.984-3.967-3.215-8.553-7.009-11.865c-2.79-2.49-6.024-4.044-9.066-4.99
		c-4.614-1.41-9.04-1.796-14.186-2.057c-5.136-0.232-11.006-0.222-18.13-0.222c-8.066-0.029-12.69-1.699-15.731-3.717
		c-2.293-1.544-3.982-3.436-5.518-6.188c-2.288-4.093-3.881-10.243-4.634-17.551c-0.787-7.298-0.816-15.62-0.81-23.951
		c-0.01-7.424,0.038-14.278-0.792-21.056c-0.642-5.068-1.8-10.204-4.334-15.195c-1.888-3.727-4.62-7.279-8.047-10.156
		c-5.166-4.335-11.522-7.019-18.7-8.632c-5.397-1.216-11.373-1.892-18.218-2.162c-0.232-0.01-0.444-0.135-0.676-0.135
		c0,0-1.733,0-6.57,0c-2.689,0-3.702,0-3.707,0c-4.803,0-11.566,0-21.008,0c-15.355,0.01-27.847-1.323-37.482-4.094
		c-7.245-2.075-12.854-4.866-17.426-8.476c-6.782-5.406-11.831-12.85-15.577-24.975c-3.693-12.068-5.652-28.614-5.638-50.104V32.011
		h-25.699v46.958c0.01,20.438,1.564,37.574,5.257,52.219C202.784,142.154,206.81,151.769,212.448,159.975z"/>
	<path class="st0" d="M510.866,238.685c-1.347-7.028-4.442-15.118-11.406-21.403c-3.438-3.109-7.714-5.58-12.503-7.163
		c-4.794-1.602-10.065-2.346-15.818-2.346c-4.146,0.01-6.816-0.415-7.868-0.763l-0.12-0.048l-0.02-0.048
		c-0.39-1.236-0.738-4.808-0.704-9.964c0-4.257,0.144-9.596,0.144-15.87c0-9.799,0.097-16.731,0.097-25.729
		c0-4.498-0.025-9.49-0.097-15.581c-0.111-9.375-1.429-18.025-4.253-25.883c-4.156-11.768-12.178-21.606-22.866-27.63
		c-10.672-6.083-23.382-8.612-37.631-8.612c-2.887,0-2.882,0-2.882,0s-0.005,0-2.886,0c-7.24-0.02-11.532-1.428-14.273-3.05
		c-2.071-1.256-3.491-2.684-4.808-4.712c-1.95-2.992-3.431-7.569-4.213-13.216c-0.802-5.628-0.942-12.155-0.937-18.71
		c0-1.979,0.01-3.967,0.01-5.946h-25.699c0,1.882-0.01,3.881-0.01,5.946c0.112,12.184,0,26.819,6.396,40.702
		c3.215,6.893,8.544,13.554,16.113,18.025c7.559,4.498,16.822,6.681,27.422,6.661c2.882,0,2.882,0,2.882,0h0.362
		c0.363,0,1.081,0,2.525,0c7.468,0,13.632,0.908,18.487,2.472c7.309,2.404,11.634,5.783,14.95,10.852
		c3.268,5.097,5.488,12.647,5.614,23.401c0.067,5.996,0.092,10.871,0.092,15.282c0,8.795-0.092,15.746-0.092,25.729
		c0,5.869-0.145,11.063-0.149,15.87c0.009,4.519,0.106,8.67,0.796,12.956c0.536,3.205,1.434,6.565,3.254,9.904
		c1.356,2.491,3.278,4.904,5.604,6.836c3.505,2.934,7.627,4.634,11.696,5.57c4.108,0.937,8.332,1.246,13.067,1.255
		c4.702,0.01,7.516,0.821,9.181,1.631c1.26,0.618,1.979,1.236,2.65,2.008c0.975,1.15,1.868,2.935,2.472,5.57
		c0.608,2.597,0.864,5.88,0.859,9.249c0,34.6,0,78.294,0,78.294H512c0,0,0-43.694,0-78.294
		C512,247.924,511.778,243.435,510.866,238.685z"/>
	<rect y="381.131" class="st0" width="158.173" height="98.858"/>
	<rect x="197.716" y="381.131" class="st0" width="306.46" height="98.858"/>
</g>
</svg>