<?xml version="1.0" encoding="utf-8"?>

<!-- Uploaded to: SVG Repo, www.svgrepo.com, Generator: SVG Repo Mixer Tools -->
<svg fill="#000000" height="800px" width="800px" version="1.1" id="Icons" xmlns="http://www.w3.org/2000/svg" xmlns:xlink="http://www.w3.org/1999/xlink" 
	 viewBox="0 0 32 32" xml:space="preserve">
<g>
	<path d="M13,16c0,0.6-0.4,1-1,1H9c0.1,2.8,2.4,5,5.2,5h3.7c2.8,0,5.1-2.2,5.2-5h-7c-0.6,0-1-0.4-1-1s0.4-1,1-1h7v-2h-7
		c-0.6,0-1-0.4-1-1s0.4-1,1-1h7V9h-7c-0.6,0-1-0.4-1-1s0.4-1,1-1h7c-0.1-2.8-2.4-5-5.2-5h-3.7C11.4,2,9.1,4.2,9,7h3c0.6,0,1,0.4,1,1
		s-0.4,1-1,1H9v2h3c0.6,0,1,0.4,1,1s-0.4,1-1,1H9v2h3C12.6,15,13,15.4,13,16z"/>
	<path d="M28,11h-2c-0.6,0-1,0.4-1,1v4.8c0,3.9-3.2,7.2-7.2,7.2h-3.7C10.2,24,7,20.8,7,16.8V12c0-0.6-0.4-1-1-1H4c-0.6,0-1,0.4-1,1
		s0.4,1,1,1h1v3.8c0,5,4.1,9.2,9.2,9.2h3.7c5,0,9.2-4.1,9.2-9.2V13h1c0.6,0,1-0.4,1-1S28.6,11,28,11z"/>
	<path d="M22.4,28.1c-1.8-0.7-4-1.1-6.4-1.1s-4.5,0.4-6.4,1.1c-0.5,0.2-0.8,0.8-0.6,1.3c0.2,0.5,0.8,0.8,1.3,0.6
		c3.2-1.2,8.1-1.2,11.3,0c0.1,0,0.2,0.1,0.4,0.1c0.4,0,0.8-0.2,0.9-0.6C23.1,28.8,22.9,28.3,22.4,28.1z"/>
</g>
</svg>