<?xml version="1.0" encoding="utf-8"?>

<!DOCTYPE svg PUBLIC "-//W3C//DTD SVG 1.1//EN" "http://www.w3.org/Graphics/SVG/1.1/DTD/svg11.dtd">
<!-- Uploaded to: SVG Repo, www.svgrepo.com, Generator: SVG Repo Mixer Tools -->
<svg height="800px" width="800px" version="1.1" id="_x32_" xmlns="http://www.w3.org/2000/svg" xmlns:xlink="http://www.w3.org/1999/xlink" 
	 viewBox="0 0 512 512"  xml:space="preserve">
<style type="text/css">
	.st0{fill:#000000;}
</style>
<g>
	<path class="st0" d="M388.428,223.259v36.189c-0.019,36.824-14.22,69.808-37.549,94.199
		c-23.368,24.352-55.678,39.931-92.314,41.538c-0.318,0.02-0.606,0.1-0.913,0.129h-3.304c-0.307-0.03-0.596-0.109-0.912-0.129
		c-36.636-1.607-68.946-17.186-92.315-41.538c-23.329-24.391-37.528-57.375-37.549-94.199v-36.189H82.927v36.189
		c-0.019,47.422,18.486,90.647,48.842,122.311c26.574,27.775,62.386,46.808,102.633,52.444V512h43.185v-77.796
		c40.259-5.636,76.071-24.669,102.644-52.444c30.355-31.664,48.861-74.889,48.841-122.311v-36.189H388.428z"/>
	<path class="st0" d="M259.3,363.363c-1.111,0-2.193-0.129-3.305-0.16c-1.101,0.03-2.182,0.16-3.294,0.16H259.3z"/>
	<path class="st0" d="M222.515,259.319h-68.241c0.556,56.432,45.586,102.128,101.721,103.884
		c56.145-1.756,101.176-47.452,101.732-103.884h-68.242v-19.508h68.29v-36.636h-68.29v-19.508h68.29V147.03h-68.29v-19.508h68.29
		V90.885h-68.29V71.376h67.953C354.046,31.396,320.585,0,279.732,0H232.27c-40.853,0-74.314,31.396-77.708,71.376h67.953v19.508
		h-68.29v36.636h68.29v19.508h-68.29v36.636h68.29v19.508h-68.29v36.636h68.29V259.319z"/>
</g>
</svg>