<?xml version="1.0" encoding="utf-8"?>
<!-- Generator: Adobe Illustrator 27.2.0, SVG Export Plug-In . SVG Version: 6.00 Build 0)  -->
<svg version="1.1" id="Layer_1" xmlns="http://www.w3.org/2000/svg" xmlns:xlink="http://www.w3.org/1999/xlink" x="0px" y="0px"
	 viewBox="0 0 1410.8 496.9" style="enable-background:new 0 0 1410.8 496.9;" xml:space="preserve">
<style type="text/css">
	.st0{fill:none;}
	.st1{fill:#333333;}
</style>
<path class="st0" d="M1233.6,468.7l0.2-1.3c31.4-1.6,155.8,11,155.3-28.1c-0.6-42.9-44.6-97.9-90.9-160.5c0.9-0.1,2.2-1.5,5.4-4.2
	c1-0.9-11.7-16.5-12.7-18.1c-7.2-11.1-5.9-11-12.4-6.2c-15.8-33.5,30.2-49.6,10.7-103.7c13.9-34.6-17-65.1-66.1-51.3
	c-6-2.1-12.5-2.1-15.7,2.8c-2,3.1-7.5-2.1-18.4,1.4c-7.7,2.4-5.5,7.4-10.2,11.7c-1.4,1.3-11.5,6.8-11.8,15.6
	c-4.3,3.6-8.6,7.4-13,11.6c-1.5-0.3-3.1-0.4-4.7-0.4c-14.7,0-26.6,11.1-26.6,24.9c0,2.7,0.5,5.3,1.3,7.8c-0.8,1.1-1.6,2.3-2.4,3.5
	l-37.9-32.5c1.4,37.9-60.2,70.6-72.2,93.9c-0.9,1.8-1.8,3.6-2.7,5.3l-56.7-28c-15.8-10.4-52.5-36.5-53.2-37.8c0,0,0-0.1,0-0.1
	l11.8-3.4c15.1-3,41.9-7.1,63.7-9.8c8.1-1,54-9.9,74.8-16.4c9,0.7,25.2-4.1,34.5-3.7c11.6,0.5,22.7-9.7,26.9-19.6
	c2-4.7,8.1-15,15.3-26.6c10.7-6.8,32.7-19.4,27.8-29.1c-1.2-2.4-4.1-2.9-7.8-2.4c4.8-7.5,8.7-13.6,10.7-16.8
	c11.1-18.2,10.7-21-1.3-20.8c-9.4,0.2-29.3,0.7-34,1.4c-6.3,1-7.3,1.8-17,14.2c-1.1,1.4-2.2,2.8-3.3,4.3h-0.1
	c-20.7,3.4-27.7,4.3-39.1,24.5c-2.8,4.9-4.7,8.2-6.2,11.1c-53.7,1.7-141.3,12-165.4,15.9c-40,6.4-52.8,1.4-80.5,29.3
	c-30,30.2-1.8,79.2,14.1,93.9c5.3,4.9,45.9,46.6,69.6,69.5c-13.2-0.4-26.6-1.1-40.5-2.3c-78.9-6.8-126.3-12.8-126.3-12.8l-0.1,2.2
	c-34.5-51.2-47.8-86.9-100.9-141.5c-40.3-41.5-102.9-19-145.6,24.7c-53,54.2-108.6,136.4-147.6,195.7
	c-81.6,10.9-157.3,18.8-214,18.8c0,3.5-0.1,7.1-0.1,10.7c-9.1,1-15.6,1.7-15.6,1.7c-0.5,2.4-1.3,4.6-2.3,6.8
	c0.5-6.2,0.7-10.2,0.6-10.4C74.2,344,88.1,273.2,38.5,274.7c-6.5,0.2-21.2,182.9-24.1,196.1c-0.5,3.9,76.8,3.5,79,0.3
	c0.1-0.1,0.7-6.2,1.5-15.1c5.1,0.4,12,0.8,19.4,1.2c-0.1,4-0.2,7.8-0.2,11.5h636.8l0.1-0.6l138-2.2L1233.6,468.7z M1268.2,375.7
	c-0.3-0.2-11.9-1-18.4-1.4c0.2-1.2,0.3-2.1,0.4-2.5c0,0-54.6-23.4-71.7-35.7c-9.6-7-19.8-13.2-30.3-18.6
	c17.4-18.4,38.3-44.6,55.6-66.8c2.4,10.2,10.3,18,15.2,28.4c0.5,1,2.5,4.5,5.6,9.6c0.8,1.3,1.7,2.9,2.6,4.3
	c13.1,22.1,37.8,63.5,43,78.1c-3.2-7.2-6-13-6.8-14.1l7.8,18.2C1270.9,376.6,1270,376.9,1268.2,375.7z M506.2,330.5l30.6-3.8
	l-31.4,4.8L506.2,330.5z"/>
<path class="st1" d="M1235.3,470.8l0.2-1.4c6.2-0.2,15.5,0,26.1,0.3c10.2,0.2,21.7,0.5,33.5,0.5c36.3,0,75.7-2.6,90.2-17
	c3.8-3.6,6-8.7,5.9-13.9c-0.5-39.8-37-88.7-79.1-145.3c-3.6-4.8-7.2-9.7-10.8-14.6c0.4-0.4,0.9-0.8,1.5-1.3s1.3-1.2,2.2-1.9
	c1.9-1.6,0.4-3.8-2.9-8.4c-2.1-3-4.9-6.5-6.9-9c-1.2-1.5-2.3-3-2.6-3.3c-0.8-1.3-1.6-2.4-2.2-3.4c-2.9-4.5-4-6.3-6.2-6.7
	c-1.7-0.3-3,0.5-4.9,1.9c-5.2-13.2-0.2-23.6,5.8-36.1c7.8-16.2,16.7-34.5,6.2-64.3c3.4-8.7,4.1-17.5,2.1-25.9
	c-3.6-14.3-15-24.8-31.4-29c-12-3-25.2-2.5-39,1.4c-2.1-0.7-4.4-1.1-6.7-1.2c-4.8-0.1-8.5,1.7-10.7,5.1c-1,0.1-1.9,0-2.9-0.2
	c-4.8-1-9.7-0.8-14.4,0.7c-5.5,1.7-6.9,4.9-8.1,7.6c-0.6,1.7-1.6,3.3-2.9,4.5c-0.1,0.1-0.6,0.5-1.1,0.8c-3.2,2.3-10.5,7.5-11.3,15.4
	c-3.9,3.3-7.8,6.7-11.6,10.4c-1.3-0.2-2.7-0.3-4-0.3c-15.8,0-28.7,12.1-28.7,26.9c0,2.5,0.4,5.1,1.1,7.5
	c-11.1,15.5-16.5,31.1-15.9,45.9c-8.2,11.9-6.4,26.2-3,37c-1.8,2.7-4,5.5-6.4,8.6c-3,3.8-6.4,8.2-9.7,13.1l-1.1,1.6l-74.1-36.6
	l1.8-3.4c4.2-8.1,15.1-17.9,26.8-28.3c21.2-18.9,45.2-40.3,45.6-64.5c11.6-0.7,22.5-10.8,26.7-20.9c1.9-4.5,7.8-14.6,14.9-25.9
	l2.6-1.6c12.3-7.7,30.8-19.3,25.5-29.9c-1.1-2.2-3.3-3.5-5.8-3.6c3.9-6.1,6.9-10.8,8.6-13.6c6.9-11.4,9.7-17.2,7.6-20.7
	c-1.6-2.7-5.2-3.2-10.7-3.1c-7.8,0.1-29.2,0.6-34.3,1.4c-7.2,1.1-8.6,2.5-18.3,15c-0.9,1.2-1.9,2.4-2.8,3.7
	c-20.4,3.3-28.1,4.6-39.8,25.4c-1.1,1.9-2,3.6-2.9,5.1c-1.1,1.9-2,3.5-2.8,5c-55.2,1.8-143.4,12.5-164.5,15.9
	c-8.3,1.3-15.5,2.2-21.8,2.9c-24.1,2.8-37.4,4.4-59.8,27c-9.5,9.5-14.1,21.5-13.8,35.7c0.5,24.8,16.7,50.7,28,61.2
	c2.1,1.9,10,10,20.1,20.1c21.3,21.5,35.8,36,45.7,45.7c-11.4-0.4-23.1-1.1-35.1-2.1c-77.9-6.7-125.7-12.8-126.2-12.8l-0.8-0.1
	c-9.1-13.7-16.8-26.3-24.3-38.7c-19.1-31.5-37.1-61.2-74.7-99.9c-14.5-15-32.4-22.5-53.1-22.6h-0.1c-30.8,0-66.4,17.7-95.3,47.3
	c-52.9,54.1-108.5,136-147.3,195.3c-81.4,10.9-156.1,18.6-212.8,18.6h-2v2c0,2.9-0.1,5.9-0.1,8.8c-6.7,0.7-11.8,1.3-13.4,1.5
	c0-2-0.1-2.3-0.3-2.6c-9.7-14.7-13.9-33.5-17.9-51.7c-6.7-30.3-13.1-58.9-44.6-58.9c-0.5,0-1,0-1.6,0c-2.5,0.1-4.6,0.1-10.5,49.8
	c-3.2,27.6-6.7,63-9.5,91.5c-2.7,28-5.1,52.1-6.1,56.4v0.2c-0.1,0.6,0,2.1,2.2,2.9c4.5,1.7,22.6,2.3,38.3,2.3h3.9
	c36.2-0.2,37.7-2.4,38.4-3.4c0.2-0.3,0.4-0.6,1.7-14c3.8,0.3,8.8,0.6,15.4,0.9c-0.1,3.3-0.2,6.5-0.2,9.6v2h601.3l0,0h2.2h37l0.1-0.6
	L889,468L1235.3,470.8z M99.4,428.2c1.4-16.2,2.3-26.5,2.8-33c0.9-2.3,1.6-4.1,2-5.4c3.9-0.5,7.9-0.9,11.9-1.3
	c-0.4,12.5-1.2,25.2-2.1,37.6c-0.7,10.2-1.3,19.9-1.7,29c-5.7-0.3-10.9-0.6-15.2-0.9C97.7,448,98.4,439.5,99.4,428.2z M120.3,383.9
	c0-2.1,0.1-4.2,0.1-6.4c55.7-0.2,128.5-7.7,207.7-18.2l5.4-0.7c53.9-7.2,110.6-15.8,166.9-24.3l6.2-0.9l9-1.4
	c15.2-2.3,30.2-4.6,45-6.8l4.3-0.7c32.3-4.9,63.6-9.5,93-13.6c0.5,0.6,1,1.1,1.5,1.6l2.2-2.1c21.5-3,42.1-5.6,61.4-7.9l-4.2,73.9
	c-9.4,1.3-58.4,5.2-114,9.3l-6.7,0.5c-55.1,4-115.2,8.2-148.8,10.2l-6.2,0.4c-9.5,0.5-16.1,0.8-18.9,0.8c-35.4,0-76.8,1.9-118.7,4.1
	l-5.1,0.3c-12,0.7-24.1,1.3-36.1,2c-31.2,1.8-63,3.6-92.9,4.8l-2,0.1l-2.1,0.1c-16.8,0.7-33,1.1-48.1,1.3c0.4-7.4,0.8-14.9,1.1-22.2
	c0-0.7,0-1.4,0-2L120.3,383.9z M1090.2,277.2c3.2-4.8,6.4-8.9,9.5-12.9c1.7-2.2,3.4-4.3,4.9-6.4c1.6,4,3.5,7.9,5.7,11.6l0.1-0.1
	c-5.4,5.5-8.8,15.5-11.9,27.8c-5.2-1.2-10.4-2.3-15.7-3.3c0-2.9,0.7-5.7,1.9-8.2C1086.5,282.8,1088.3,280,1090.2,277.2L1090.2,277.2
	z M1387,439.3c0.1,4.2-1.6,8.2-4.7,11c-18,17.8-82.2,16.2-120.6,15.3c-8-0.2-14.9-0.4-20.4-0.4c-1.8,0-3.5,0-5,0h-1.2
	c0.4-3.4,1.2-9.9,2.2-18.1c1.7-14.1,4.1-32.9,6.2-48.1c1.4-9.9,2.6-18.3,3.5-22.9h0.3l2,0.1l2.1,0.1c6.9,0.5,14.3,1,16,1.2
	c1,0.7,2.2,0.9,3.4,0.7c4.3,10,8.6,20.6,9.1,23.1l4-0.7c-0.6-3.2-6.8-18.4-12.1-30.4c-0.5-1.5-1.3-3.3-2.2-5.5
	c-2.4-5.3-6.1-12.6-11.1-21.7c-7.7-14.1-17.3-30.4-24.8-43c3.3-0.4,6.5-1.1,9.7-1.9c15.2-3.9,42.2-13.7,47.4-25.5
	c1.2,1.6,2.4,3.2,3.5,4.9c1,1.5,1.7,2.6,2.8,3c4,5.3,7.9,10.6,11.7,15.8C1350.4,352.5,1386.5,400.9,1387,439.3L1387,439.3z
	 M638.5,400.4c-59.6,3.4-158,8.2-204.2,10l-6.5,0.2c-8.5,0.3-14.6,0.5-17.3,0.5c-36.6,0-76.2,2.4-114.6,4.7l-1.2,0.1l-4,0.2
	c-40.4,2.5-81.8,4.9-119.3,4.4h-2.1h-2.1h-0.8c-15-0.3-24.4,1.2-34.4,2.7c-4.4,0.7-8.8,1.3-14,1.9c0.2-3.6,0.5-7.2,0.7-10.9
	c15.2-0.1,31.5-0.6,48.4-1.3l2-0.1l2.1-0.1c30-1.2,61.9-3,93.1-4.8c11-0.6,22-1.3,33-1.9l5.1-0.3c43-2.3,85.4-4.3,121.5-4.3
	c1.7,0,6.8-0.2,14.5-0.7l6.3-0.4c33.2-2,99.5-6.4,158.9-10.7l8.5-0.6c50.5-3.7,94.5-7.1,106.2-8.6l-0.8,14.9
	c-4.2,0.4-9.8,0.4-14.2,0.5c-6.7,0.1-13.1,0.1-16.3,1c-1.6,0.4-11.9,1.2-27.6,2.2C653.3,399.5,646.2,400,638.5,400.4L638.5,400.4z
	 M924.3,342.7c1.4,0,2.8,0,4.2,0.1c5.7,0.2,11.1,0.5,16.3,1c11,1.1,18.9,0.3,24.8-2c0.9-0.4,1.9-0.8,2.8-1.2
	c0.8-0.4,1.5-0.8,2.3-1.3c10.2-7,11.7-20.8,13.7-38.2c0.3-2.8,0.6-5.7,1-8.7c0.1-0.7,0.2-1.4,0.3-2.1s0.2-1.4,0.3-2
	c0.6-4.4,1.4-9,2.4-13.7c1.2-5.4,2.7-10.7,4.7-15.8c2.3-6,5.1-11.8,8.5-17.2c0.2-0.4,0.5-0.7,0.7-1.1l0.4,0.3l3,2l-0.4,0.7
	c-3.5,5.4-6.3,11.2-8.6,17.2c-3.2,9-5.4,18.2-6.6,27.7c-0.1,0.7-0.2,1.4-0.3,2l-0.3,2c-0.4,3.1-0.7,6.2-1.1,9.2
	c-1.8,16.4-3.4,30.8-12.8,39.2c-0.6,0.5-1.2,1-1.9,1.5s-1.5,1-2.3,1.5c-6.8,3.9-16.6,5.6-31,4.2c-5.2-0.5-10.8-0.9-16.6-1
	c-1.4,0-2.8-0.1-4.2-0.1c-25.2-0.2-53.2,4.4-71.1,21.4c-18.9,17.9-20.3,40.2-10.8,51.3s31,14,63.6-10.8c7.8-6.1,16.7-10.6,26.1-13.5
	c1.3-0.4,2.7-0.8,4-1.1c23.8-5.7,47.8,0.4,71.3,6.3c9.5,2.4,18.8,4.8,28,6.3c2.3,0.4,4.6,0.7,6.9,1c17.4,2,34,0.2,49.3-11.2
	c27.3-20.4,22.9-40,15.8-59.1c-0.3-0.9-0.7-1.7-1-2.6l-1-2.6l-0.2-0.6c-2.2-5.4-4.1-10.8-5.7-16.4c-1.1-3.9-1.6-7.9-1.6-11.9
	c0-0.7,0.1-1.3,0.1-2s0.2-1.4,0.3-2.1c0.1-0.5,0.2-1,0.3-1.5l0.7,0.2l3.3,0.7c-0.1,0.5-0.2,1.1-0.3,1.6c-0.1,0.7-0.2,1.4-0.2,2.1
	c0,0.5,0,1,0,1.5c-0.1,8.3,3.4,17.1,7,26.3c0.6,1.4,1.1,2.8,1.7,4.3c0.3,0.9,0.7,1.7,1,2.6s0.6,1.7,0.9,2.5
	c6.7,18.9,9.5,39.5-18.4,60.4c-18.2,13.6-37.7,14.5-58.2,11.2c-2.3-0.4-4.6-0.8-7-1.2c-7.4-1.5-14.9-3.4-22.5-5.3
	c-22.6-5.7-45.7-11.5-68.4-6.4c-1.4,0.3-2.7,0.7-4.1,1c-9.3,2.7-17.9,7-25.5,12.9c-18.8,14.4-34.4,19.8-46.5,19.8
	c-10.2,0-17.8-3.9-22.7-9.6c-10.6-12.4-10.3-36.6,11.1-57C868.7,347.1,898,342.5,924.3,342.7L924.3,342.7z M1201.1,248.4
	c0.1,0.6,0.2,1.2,0.3,1.8c-16.6,21.3-36.8,46.7-53.8,64.8c-14.4-7.2-29.5-12.8-45.1-16.8c3-11.8,6.3-21.6,11.2-26.3
	c0.9-0.2,3.4-0.5,6.1-0.8C1137.3,269.1,1181.8,263.9,1201.1,248.4L1201.1,248.4z M1222.6,289.6c0.7,1.2,1.5,2.6,2.6,4.4l1.1,1.8
	c0.6,1,1.2,1.9,1.7,2.9c0.1,0.2,0.2,0.4,0.4,0.6c7.6,12.8,17.3,29.2,25.4,43.9c3.3,6,5.9,10.9,7.9,14.9l-0.2,0.2
	c0.7,0.9,3.5,6.8,6.7,14c0.2,0.6,0.3,1.1,0.4,1.5c-1.1-0.2-4.4-0.5-16.5-1.4c0-0.1,0-0.2,0-0.3l0.2-1.5l-1.4-0.6
	c-0.5-0.2-54.6-23.4-71.3-35.5c-9-6.5-18.4-12.3-28.2-17.5c16.3-17.4,35.1-41,51.4-61.9c1.8,4.8,4.6,9.1,7.5,13.5
	c2.5,3.6,4.7,7.4,6.7,11.3C1217.5,281,1219.3,284.1,1222.6,289.6L1222.6,289.6z M1281.4,209.2c-6.4,13.3-12.6,26-4.6,42.5l-0.5,0.1
	c0.1,0.3,2,3.4,4.3,6.8c-0.8,0.5-1.6,1.2-2.6,1.9c-7.1,5.5-23.7,18.5-54.8,22.3c-1.4-2.4-2.4-4.1-2.6-4.7c-2-4.1-4.3-8.1-6.9-11.9
	c-3.3-5-6.4-9.8-7.8-15.2c-0.2-0.9-0.4-1.7-0.6-2.6c-0.2-1-0.3-2-0.3-3c0-0.6,0-1.2,0-1.8c0-0.7,0.1-1.5,0.2-2.2s0.2-1.4,0.3-2.2
	c1-4.5,2.7-8.8,5-12.8c1-1.8,4.3-4.4,8.4-7.4l1.7-1.2l1.7-1.2l1.9-1.4c2.7-1.9,5.6-3.9,8.5-6c1.4-1,2.8-2.1,4.1-3.1l0.3-0.3l1.5-1.2
	c0.5-0.4,1.1-0.9,1.6-1.3l0.8-0.7l0.7-0.6c6-5.2,11.3-10.9,14.1-17.1c1.4-3,2.2-6.3,2.1-9.7c-0.2-9.9,3-15.8,6-17.2
	c1.2-0.5,2.5-0.4,3.5,0.5c0,0.9,0.5,1.7,1.3,2.1c0.1,1.2,0.2,2.1,0.1,2.5c-0.1,2.8-0.3,5.5-0.6,8c-0.3,2.5-0.7,5-1.3,7.5
	c-1.4,5.9-3.9,11.6-7.2,16.7l3.4,2.2c4.8-7.4,7.8-15.8,8.9-24.5c0.3-2,0.5-4.2,0.6-6.3c0.1-1.1,0.1-2.3,0.2-3.5c0-1-0.3-4.5-0.7-9.1
	c0-0.3-0.1-0.7-0.1-1c0.8-1.7,2.2-2.3,3.7-2.9c0.5-0.2,0.9-0.4,1.4-0.7c0.5,1.2,1,2.2,1.1,2.6v0.1c0.7,2,1.2,3.9,1.7,5.8
	s0.8,3.6,1.1,5.3c0,0.2,0,0.3,0.1,0.5c0.3,1.9,0.5,3.8,0.7,5.7c0.3,5.4-0.1,10.8-1.3,16l4,0.9c2.1-9.1,2.1-18.5-0.1-27.6
	c-0.4-1.8-0.9-3.6-1.4-5.4c-0.2-0.7-0.4-1.5-0.7-2.2c0-0.1-0.1-0.2-0.1-0.3c-0.2-0.7-1-2.4-2.1-4.8V146l0.1-0.1
	c0.6-1,1.4-1.9,2.3-2.7c0.3-0.3,0.7-0.4,1.2-0.4c0.7,0,1.9,1,2.9,3.7l0,0c0.7,1.9,1.3,3.8,1.9,5.6
	C1296.5,178,1288.5,194.5,1281.4,209.2z M1124.9,173c0.5-0.6,0.9-1.3,1.4-1.9c0.7-0.9,1.4-1.8,2.1-2.7c8.2-10.2,17.6-19.4,28.1-27.2
	c0.7-0.5,1.4-1,2-1.5s1.4-1,2-1.4s1.1-0.7,1.6-1c1.5-0.9,3-1.8,4.6-2.6c1.8,3.3,4.2,6.2,7,8.6c-0.5,1.3-1,2.6-1.3,3.8
	c-0.3,0.9-0.5,1.8-0.6,2.6c-0.2,1.1-0.3,2.2-0.3,3.3c-0.3,3.4,0.5,6.8,2.4,9.7c0.6,0.8,1.3,1.5,2,2.2c0.6,0.5,1.2,1,1.9,1.5
	c0.3,0.2,0.7,0.4,1,0.6c2,9.3,12.2,13.1,17.8,15.2c0.9,0.3,1.9,0.7,2.5,1c1.1,8.1,3.2,11.8,5.9,13.9c0.6-0.4,1.3-0.7,2-1.1
	c0.7-0.4,1.4-0.7,2.2-1h0.1c9.8-4.1,21-2.6,29.3,4l0.6,0.5l-1.2,1l-0.4,0.3c-0.5,0.5-1.1,0.9-1.6,1.3c-4.3-3.4-9.7-5.3-15.2-5.3
	c-2.2,0-4.4,0.3-6.5,0.8c-0.8,0.2-1.6,0.5-2.4,0.8c-0.3,0.1-0.7,0.3-1.1,0.4s-0.9,0.4-1.4,0.7c-5.3,2.5-9.6,6.9-12.1,12.2
	c-2.6,5.6-2.8,11.9-0.4,17.6c1.2,2.8,3,5.4,5.2,7.5c-0.2,0.8-0.4,1.5-0.5,2.3s-0.3,1.6-0.4,2.3s-0.1,1.3-0.2,1.9
	c-16.6,16.3-63.8,21.8-81.6,23.8c-3.7,0.4-5.5,0.6-6.5,0.8l0.8-0.5c-2.6-4.3-4.7-8.9-6.3-13.6c4.9-7.7,7.4-15.4,4.3-26
	c-4.8-16.7-0.8-34.4,11.8-52.8C1124,174.3,1124.5,173.6,1124.9,173z M539.7,291.3c3.3,1.5,11.3,15.8,18.9,30l-43.6,6.6l-4.5,0.7
	C522.3,314.4,532.6,301.3,539.7,291.3z M543.7,289.4c0.1-2.1-2.5-5.1-11.2-14.2c-3.9-4.1-9.8-10.4-10.3-11.9l-4,0.7
	c0.4,2.2,3.6,5.8,11.4,14c2.7,2.9,6.5,6.8,8.5,9.4c-0.7,0.3-1.2,0.7-1.6,1.3c-8.1,11.5-19.5,25.9-32.1,40.9
	c-25,3.8-50.1,7.6-75.1,11.3c4.8-5,18.3-22.3,61.7-82l3.6-5c2.7-3.7,5.2-7.4,7.7-11c11.9-17.7,21.3-31.6,46.2-31.6
	c18.1,0,45.7,39.7,65.9,68.8c8.5,12.2,15.9,22.9,21.8,29.8c-23.6,3.4-48.2,7-73.4,10.8C553.7,303.4,548,293.5,543.7,289.4
	L543.7,289.4z M641.1,309.1c-6-6.5-14-18.1-23.3-31.4c-21.8-31.4-49-70.5-69.2-70.5c-27.1,0-37.5,15.5-49.6,33.4
	c-2.4,3.5-4.9,7.2-7.5,10.9c-0.7,0.9-1.9,2.6-3.6,5c-47.8,65.7-60.3,81.2-62.4,82.6c0.1-0.1,0.2-0.1,0.3-0.1l0.8,2.3l-15.8,2.3
	c4-3.8,16.3-19.3,62.6-82.8c1.7-2.3,2.9-4,3.6-4.9l2.9-3.9c15.7-21.5,39.2-53.9,67.1-53.9h1.2c30,1,65.9,51.9,89.5,85.6
	c6.5,9.3,12.4,17.7,17.2,23.7C650.3,307.8,645.7,308.4,641.1,309.1L641.1,309.1z M116.2,459.4c0-0.7,0-1.4,0.1-2.1s0.1-1.4,0.1-2
	c0.3-8.2,0.9-16.9,1.5-25.9c5.6-0.6,10.3-1.3,14.9-2.1c10.2-1.6,19.1-2.9,33.6-2.6h0.9c0.7,0,1.4,0,2.1,0h2
	c36.6,0.5,76.9-1.8,116.3-4.2l5.2-0.3l2-0.1c38.7-2.4,78.6-4.8,115.5-4.8c1.6,0,5.6-0.1,11.6-0.3l7.1-0.3
	c48.2-1.9,173.6-7.7,230.5-11.3c13.8-0.9,23.5-1.6,27.2-2.2c0.4-0.1,0.9-0.1,1.3-0.2c2.7-0.7,9.1-0.8,15.3-0.8
	c5.6,0,10.3-0.1,13.9-0.5l-0.1,2.2l-0.2,4.1l-3.5,60.8H116.1C116.1,464.3,116.2,461.9,116.2,459.4z M1283.5,249.3
	c1.3,1.5,2.5,3.1,3.4,4.9c0.6,1,1.4,2.2,2.2,3.5c0.3,0.5,1.1,1.5,2.8,3.6c2.4,3.1,7.8,10,9.3,12.7l-1.3,1.1
	c-0.4,0.4-0.9,0.8-1.2,1.1c-2.5-3.4-5-6.8-7.5-10.2c-1-3.1-3.4-5.8-5.6-7.8c-0.1-0.1-0.1-0.1-0.2-0.2l-0.3-0.4
	c-1.5-2.1-2.9-4.2-4.1-6.5C1281.8,250.3,1282.6,249.7,1283.5,249.3z M1261,95.7c14.8,3.8,25.2,13.3,28.4,26
	c1.6,6.5,1.3,13.2-0.6,19.6c-1-1.5-2.7-2.5-4.5-2.6c-0.3,0-0.6,0-0.9,0c0.2-3.2-0.2-6.1-2.9-8.8c-5.2-5-7.6-10.6-9.7-15.6
	c-3.6-8.3-6.9-16.1-21.4-16.1h-0.8c-2.1,0-5.1,1-8,2c-1.6,0.6-3.3,1.1-5,1.5c-1.8-2.4-4.1-4.4-6.7-5.8
	C1240.3,93.3,1251.1,93.2,1261,95.7z M1106.6,223.4c0.3,1.9,0.7,3.7,1.3,5.5c2.1,6.5,1.4,13.6-2,19.5
	C1103.8,240.6,1103.1,231.5,1106.6,223.4z M1037.4,205.3c-12.4,11.1-23.2,20.6-27.7,29.4l-1.8,3.5l-54.7-26.9
	c-13.2-8.8-42.4-29.2-50.7-35.7c9.1-2.6,41.6-7.9,72.1-11.7c5.3-0.7,26.7-4.7,46.8-9.2c13.2-3,22-5.3,28-7.1c0.6,0,1.2,0,1.8,0
	c4.6,0,10.2-0.9,16-1.9c4.8-0.9,9.6-1.5,14.4-1.8C1081.2,166.2,1057.9,187,1037.4,205.3z M1059.1,79.8l1.6-2.8
	c0.9-1.5,1.8-3.2,2.9-5.1c9.9-17.7,15.9-19.9,32.8-22.7l2.9-0.5l1.2-0.2l0.7-0.1l0.9-0.1c1.7-0.3,3.4-0.4,5.1-0.4
	c6.3,0,9.7,2,10.2,3.8c0.7,2.7-3.8,7.4-15.3,11.4c-0.5,0.2-0.9,0.4-1.3,0.7c-3.1,0.2-6.6,0.4-10,0.7c-0.9,0.1-1.8,0.2-2.7,0.3
	s-1.8,0.2-2.6,0.3c-2.6,0.3-5.1,0.7-7.6,1.3c-0.6,0.1-1.2,0.5-1.6,1.1c0.2-0.4,0.6-0.7,1.1-0.8l0.4,4.1c0.5,0,1-0.2,1.4-0.4
	c1-0.2,2.1-0.4,3.4-0.6c0.8-0.1,1.7-0.3,2.7-0.4s1.8-0.2,2.7-0.3c6.6-0.8,13.2-1.2,19.8-1.3c4,0.2,5,0.8,5.2,1.2
	c0.6,1.3-0.9,7.8-7,10.6c-1.6,0.7-2.8,1.2-3.8,1.7c-1.5,0.2-4,0.5-6.6,0.7l-2.5,0.2c-5.8,0.6-10.8,1.1-14.6,1.6l-0.9,0.1l-1.7,0.2
	c-1.1,0.2-2,0.3-2.7,0.5l-0.5,0.1c-0.4,0.1-0.7,0.2-1.1,0.2c-2.5,0.4-5,1.1-7.4,2.1l1.5,3.8c1.5-0.6,3-1,4.5-1.4
	c0.8-0.2,1.5-0.3,2.1-0.4l0.6-0.1c0.3-0.1,0.6-0.1,0.9-0.2c0.6-0.2,1.2-0.3,1.9-0.4c3.9-0.7,11.7-1.5,17.8-2.1l1.7-0.2l0,0l2.1-0.2
	c0.2,0.4,0.5,0.7,0.8,0.9l0.1,0c0,1-0.3,1.9-0.8,2.8c-0.2,0.6-0.6,1.2-1,2c-0.9,1.4-2.1,2.6-3.5,3.4c-0.4,0.3-0.9,0.6-1.4,0.8
	c-1.1,0.6-2.2,1-3.4,1.5c-1.1,0.4-2.1,0.7-3.1,1c-5.3-0.1-12.4,2.7-18.3,5.2l-0.7,0.3l-2.5,1c-1.1,0.5-2.2,0.9-3,1.1
	c-0.4,0.1-0.8,0.2-1.2,0.3h-0.5l-0.7,0.4l1,1.7l0.5,0.8l0.1,1.1c0.2,0,0.5-0.1,0.7-0.1c1-0.2,2-0.5,2.9-0.9c1.2-0.4,2.6-1,4.3-1.7
	c3.2-1.3,7-2.9,10.6-4c0.3,0.4,0.7,0.8,1.1,1c2.1,1.1,2,2.1,2,2.5c-0.6,5.7-18.5,15.9-22.2,16.9c-3.5,1-6.7,2.8-9.3,5.3
	c-1.8,1.6-3.1,3.6-3.9,5.8c-0.2,0.6-0.3,1.3-0.2,2c0,0.2,0,0.5,0.1,0.7c-0.4,1.1-0.6,2.3-0.5,3.5c-0.4-0.3-0.8-0.6-1.2-0.9
	c-0.5-0.5-1-1.1-1.4-1.7c-0.5-0.7-0.9-1.4-1.2-2.1c-3.3-8.3,2.8-21.7,6.4-29.7c1.1-2.5,2-4.4,2.5-5.9c2.8-8.5,4.4-12.4,6.7-16.9
	C1057.5,82.7,1058.2,81.3,1059.1,79.8L1059.1,79.8z M1151.8,67.3c3.1,6.2-9.6,15.3-19.4,21.6c5-8,10.3-16.2,14.7-23.1
	C1149.4,65.6,1151.1,66,1151.8,67.3L1151.8,67.3z M845.3,239.9c-10.1-10.2-18.1-18.2-20.2-20.2c-10.8-10-26.1-34.6-26.6-58.2
	c-0.3-13,4-24,12.6-32.7c21.4-21.5,33.4-23,57.4-25.8c6.4-0.8,13.6-1.6,22-3c25.2-4.1,108.6-13.8,161.7-15.8
	c-2.3,5-4.3,10.2-5.9,15.4c-0.4,1.2-1.3,3.2-2.3,5.5c-3.9,8.6-10.4,23-6.4,32.9c0.8,2.1,2.1,4,3.8,5.5c0.3,0.7,0.8,1.3,1.3,1.8
	c-21.5,5.9-59.2,13.4-68.5,14.6c-16.3,2-34.8,4.7-49.3,7.2c-6.1,1-10.8,1.9-14.5,2.6c-4.8,0.5-23.2,3.6-33.2,9.6l2.1,3.5
	c4.7-2.9,11.6-5,17.8-6.5c0.3,0.5,1.3,2,30.3,22.3c9.5,6.6,16,11.2,20.6,14.2l-53.2,75.1l0.4,0.9h-1.1
	C879.6,274.5,858.8,253.5,845.3,239.9z M481.3,162.3c28.2-28.8,62.7-46.1,92.4-46.1h0.1c19.6,0,36.5,7.2,50.2,21.3
	c37.3,38.4,55.2,67.9,74.2,99.2c8,13.3,16.2,26.8,26.1,41.5l-1.1,20.1c-20,2.3-41.2,5.1-63.6,8.2c-4.9-5.9-11.4-15-18.7-25.3
	c-25.6-36.4-60.7-86.2-92.8-87.3c-30.6-1-55.4,33-71.8,55.6l-2.8,3.9c-0.7,0.9-1.9,2.6-3.6,4.9c-47.8,65.8-60.4,81.2-62.4,82.7
	c0.1,0,0.2-0.1,0.3-0.1l1,3c-24.5,3.6-48.7,7-72.3,10.2C375.1,295.2,429.6,215.3,481.3,162.3L481.3,162.3z"/>
</svg>
