<svg width="35" height="35" viewBox="0 0 35 35" fill="none" xmlns="http://www.w3.org/2000/svg">
<path d="M17.5029 4.77117C17.3268 4.76949 17.1523 4.80391 16.99 4.87232C16.8277 4.94072 16.6812 5.04166 16.5595 5.16889L9.58971 12.1387H4.10584C3.92976 12.137 3.7552 12.1714 3.59294 12.2398C3.43069 12.3082 3.28417 12.4092 3.16243 12.5364C3.0352 12.6581 2.93426 12.8046 2.86586 12.9669C2.79745 13.1292 2.76303 13.3037 2.76471 13.4798V21.5155C2.76471 21.8782 2.89834 22.1932 3.16243 22.4573C3.28417 22.5845 3.43069 22.6855 3.59294 22.7539C3.7552 22.8223 3.92976 22.8567 4.10584 22.855H9.58971L16.5595 29.8264C16.681 29.9534 16.8273 30.0543 16.9893 30.1227C17.1512 30.1911 17.3255 30.2256 17.5013 30.2241C17.6774 30.2258 17.8519 30.1914 18.0142 30.123C18.1765 30.0546 18.323 29.9536 18.4447 29.8264C18.5718 29.7049 18.6727 29.5587 18.7411 29.3967C18.8095 29.2347 18.844 29.0604 18.8424 28.8846V6.11071C18.8441 5.93463 18.8097 5.76007 18.7413 5.59781C18.6729 5.43555 18.5719 5.28904 18.4447 5.1673C18.3232 5.04026 18.1769 4.93944 18.0149 4.87104C17.853 4.80264 17.6787 4.76811 17.5029 4.76958M25.992 20.4607C26.5722 19.58 26.8815 18.5484 26.8815 17.4937C26.8815 16.439 26.5722 15.4074 25.992 14.5266C25.4395 13.639 24.613 12.9554 23.6374 12.5793C23.4729 12.5042 23.2932 12.4682 23.1124 12.4743C22.9376 12.4724 22.7641 12.5056 22.6023 12.572C22.4405 12.6384 22.2937 12.7367 22.1706 12.8609C22.0416 12.9837 21.9396 13.1319 21.8711 13.2963C21.8026 13.4606 21.7692 13.6375 21.7729 13.8155C21.7729 14.1066 21.8572 14.3548 22.0243 14.5568C22.1913 14.7605 22.3949 14.9339 22.632 15.0818C22.869 15.2266 23.1061 15.3873 23.3431 15.5623C23.5818 15.7373 23.7822 15.9839 23.9508 16.3053C24.1179 16.6266 24.2022 17.0243 24.2022 17.4984C24.2022 17.9725 24.1179 18.3703 23.9508 18.6916C23.8082 18.9832 23.6002 19.238 23.3431 19.4362C23.1045 19.6112 22.869 19.7703 22.632 19.9166C22.3933 20.063 22.1913 20.238 22.0243 20.44C21.8543 20.6496 21.7651 20.9132 21.7729 21.183C21.7729 21.56 21.9065 21.8782 22.1706 22.1359C22.2938 22.26 22.4407 22.3581 22.6024 22.4245C22.7642 22.4909 22.9376 22.5242 23.1124 22.5225C23.2931 22.529 23.4728 22.4937 23.6374 22.4191C24.6093 22.032 25.4336 21.347 25.992 20.4623" fill="black"/>
<path d="M30.4596 23.4132C31.6293 21.663 32.2492 19.6032 32.2398 17.4982C32.2488 15.3932 31.6289 13.3336 30.4596 11.5832C29.3262 9.82105 27.6839 8.44507 25.7505 7.63776C25.5767 7.56926 25.3917 7.53366 25.2048 7.53276C25.029 7.5313 24.8548 7.56583 24.6928 7.63423C24.5308 7.70263 24.3846 7.80345 24.263 7.93049C24.136 8.05204 24.0351 8.1983 23.9667 8.36027C23.8983 8.52224 23.8638 8.69649 23.8653 8.8723C23.8653 9.41799 24.1373 9.82844 24.683 10.1084C25.4626 10.5125 25.9939 10.8196 26.2739 11.0296C27.2946 11.7688 28.1237 12.7414 28.6921 13.8662C29.2696 15.0037 29.5591 16.2143 29.5591 17.4982C29.5591 18.7821 29.2696 19.9928 28.6905 21.1318C28.1221 22.2566 27.293 23.2292 26.2723 23.9684C25.9939 24.1784 25.4641 24.4855 24.6814 24.8896C24.1373 25.168 23.8653 25.58 23.8653 26.1241C23.8638 26.2999 23.8983 26.4742 23.9667 26.6362C24.0351 26.7981 24.136 26.9444 24.263 27.0659C24.5287 27.3316 24.8485 27.4637 25.2255 27.4637C25.4054 27.4618 25.5833 27.4267 25.7505 27.3603C27.684 26.5531 29.3264 25.1771 30.4596 23.4148" fill="black"/>
</svg>
